#!OML:ASF F:\VICON\USERDATA\INSTALL\Justin_Nancy\Justin_Nancy.ASF
:FULLY-SPECIFIED
:DEGREES
276
root -8.80298 17.3835 2.75969 0.868983 17.0903 1.53697
lowerback 7.12477 -1.29453 -4.1639
upperback 0.323437 -1.9854 1.96449
thorax -3.45005 -0.906613 4.58114
lowerneck -17.8102 -3.99143 -9.98378
upperneck 23.3279 -4.06074 5.37587
head 10.7914 -2.0892 3.02193
rclavicle 2.03754e-015 -1.27222e-014
rhumerus -31.189 -15.0136 -78.9076
rradius 31.2065
rwrist 7.41171
rhand -13.0474 8.5767
rfingers 7.12502
rthumb 13.0475 -20.9952
lclavicle 2.03754e-015 -1.27222e-014
lhumerus -27.1591 0.307929 90.4563
lradius 39.1343
lwrist -0.83474
lhand -15.9715 28.5538
lfingers 7.12502
lthumb 10.2276 58.2851
rfemur -23.1658 10.9325 9.85779
rtibia 25.9935
rfoot -0.351512 19.0751
rtoes 10.6117
lfemur -3.71326 -9.52918 -27.4192
ltibia 32.9409
lfoot -14.9676 -15.6393
ltoes 9.0051
277
root -8.80648 17.3829 2.89099 0.89579 18.4059 1.5662
lowerback 6.99965 -1.37128 -4.1574
upperback 0.328682 -2.08403 1.91967
thorax -3.36556 -0.958612 4.53472
lowerneck -17.786 -3.95098 -10.0337
upperneck 23.4036 -3.99465 5.39282
head 10.8105 -2.06176 3.0481
rclavicle -2.5345e-014 2.14687e-014
rhumerus -31.4278 -15.0346 -78.9661
rradius 31.1416
rwrist 7.37102
rhand -13.8075 9.4614
rfingers 7.12502
rthumb 12.3147 -20.156
lclavicle -2.5345e-014 2.14687e-014
lhumerus -27.2141 0.28233 90.5318
lradius 39.0083
lwrist -0.976341
lhand -16.3664 26.8724
lfingers 7.12502
lthumb 9.84664 56.6222
rfemur -22.4202 11.0252 9.94692
rtibia 26.0568
rfoot -2.48683 18.3009
rtoes 6.16135
lfemur -3.8334 -9.82471 -27.2462
ltibia 33.88
lfoot -14.4192 -16.1395
ltoes 8.79072
278
root -8.80049 17.3801 3.03868 0.885562 19.7657 1.98556
lowerback 6.90757 -1.41409 -4.41433
upperback 0.367271 -2.16402 1.73153
thorax -3.2631 -0.999488 4.48603
lowerneck -16.9016 -3.87654 -9.76671
upperneck 22.7317 -3.94017 5.01231
head 10.3764 -2.06023 2.86993
rclavicle -2.34566e-014 4.77083e-015
rhumerus -31.8142 -15.2536 -78.9066
rradius 31.1452
rwrist 7.61099
rhand -14.1981 9.93943
rfingers 7.12502
rthumb 11.9381 -19.7002
lclavicle -2.34566e-014 4.77083e-015
lhumerus -27.4359 -0.0770153 90.669
lradius 39.0737
lwrist -0.960177
lhand -16.6929 25.3598
lfingers 7.12502
lthumb 9.53167 55.1242
rfemur -21.351 10.8264 9.67033
rtibia 25.8504
rfoot -4.87225 16.4426
rtoes 1.17361
lfemur -3.76618 -10.0565 -27.5437
ltibia 34.9777
lfoot -14.0756 -16.4419
ltoes 8.258
279
root -8.8014 17.379 3.16517 0.891648 20.878 1.88773
lowerback 6.70235 -1.31944 -4.38098
upperback 0.345938 -2.02443 1.81274
thorax -3.18365 -0.931911 4.53284
lowerneck -15.186 -3.69114 -9.41591
upperneck 21.2143 -3.73619 4.29232
head 9.47526 -2.01737 2.58162
rclavicle 2.05245e-014 1.35174e-014
rhumerus -32.2623 -15.275 -78.6727
rradius 31.2967
rwrist 7.36566
rhand -13.6825 9.07566
rfingers 7.12502
rthumb 12.4352 -20.5344
lclavicle 2.05245e-014 1.35174e-014
lhumerus -27.7088 -0.484163 91.0314
lradius 39.1797
lwrist -1.12586
lhand -16.7925 24.7205
lfingers 7.12502
lthumb 9.43557 54.4892
rfemur -20.4909 10.8154 9.9844
rtibia 25.4844
rfoot -6.47806 13.7666
rtoes -3.45454
lfemur -4.1236 -10.0688 -27.1913
ltibia 36.2144
lfoot -13.7159 -16.6833
ltoes 7.44211
280
root -8.81369 17.389 3.26893 0.808915 21.8655 0.976049
lowerback 6.27821 -1.19912 -3.82861
upperback 0.519811 -1.79241 2.23622
thorax -2.79406 -0.835211 4.62467
lowerneck -15.0585 -3.79937 -9.42062
upperneck 20.7324 -3.7609 3.7542
head 9.27801 -2.08123 2.38827
rclavicle 1.52567e-014 3.18055e-015
rhumerus -32.0723 -15.2591 -78.4766
rradius 31.3625
rwrist 6.87458
rhand -13.6751 9.1166
rfingers 7.12502
rthumb 12.4424 -20.493
lclavicle 1.52567e-014 3.18055e-015
lhumerus -27.4298 -0.751385 91.501
lradius 39.2258
lwrist -1.43877
lhand -16.9866 24.7454
lfingers 7.12502
lthumb 9.24825 54.5226
rfemur -19.9303 11.0331 11.1978
rtibia 25.084
rfoot -6.92649 11.6833
rtoes -5.77782
lfemur -5.00547 -9.96278 -25.8857
ltibia 37.601
lfoot -12.8917 -17.0208
ltoes 6.52685
281
root -8.8168 17.4024 3.38379 0.741824 23.0916 0.371688
lowerback 6.07375 -1.16582 -3.22898
upperback 0.625995 -1.69532 2.39207
thorax -2.59264 -0.799316 4.43077
lowerneck -16.068 -4.02859 -9.74356
upperneck 21.4964 -3.93625 3.91219
head 9.75873 -2.1716 2.46796
rclavicle 1.28216e-014 -4.37326e-015
rhumerus -31.8677 -15.4606 -78.4316
rradius 31.2588
rwrist 6.58251
rhand -14.5416 10.4126
rfingers 7.12502
rthumb 11.6069 -19.2459
lclavicle 1.28216e-014 -4.37326e-015
lhumerus -27.2758 -1.11255 91.6618
lradius 39.1889
lwrist -1.62603
lhand -16.8312 25.5467
lfingers 7.12502
lthumb 9.39826 55.3171
rfemur -19.1352 10.8095 12.0943
rtibia 24.6768
rfoot -6.92697 11.2692
rtoes -3.99167
lfemur -5.83437 -9.96208 -24.932
ltibia 39.1375
lfoot -11.8984 -17.504
ltoes 6.06096
282
root -8.81451 17.4145 3.5106 0.57997 24.3256 0.0466581
lowerback 6.34881 -1.13139 -2.6706
upperback 0.435384 -1.61704 2.34286
thorax -2.96859 -0.755182 4.06911
lowerneck -16.0579 -4.14107 -9.88538
upperneck 21.7461 -4.07598 3.98989
head 9.86194 -2.24192 2.50185
rclavicle 7.7526e-015 -1.35174e-014
rhumerus -32.2399 -15.6835 -78.341
rradius 31.2382
rwrist 6.44498
rhand -14.8108 10.5066
rfingers 7.12502
rthumb 11.3472 -19.1664
lclavicle 7.7526e-015 -1.35174e-014
lhumerus -27.6841 -1.28672 91.6421
lradius 38.8136
lwrist -1.34261
lhand -17.27 27.2885
lfingers 7.12502
lthumb 8.97484 57.0776
rfemur -18.1209 10.4758 12.74
rtibia 24.3301
rfoot -7.20934 11.0964
rtoes -2.8863
lfemur -6.45838 -9.81944 -24.2984
ltibia 40.7133
lfoot -10.7015 -18.0441
ltoes 5.52102
283
root -8.81863 17.4276 3.62853 0.248872 25.5563 -0.530667
lowerback 6.84641 -1.06296 -1.92765
upperback 0.0963867 -1.47574 2.3005
thorax -3.63122 -0.678567 3.61367
lowerneck -15.5518 -4.21088 -9.45736
upperneck 21.7695 -4.19044 3.39559
head 9.76194 -2.33027 2.21237
rclavicle -9.93923e-015 1.55052e-014
rhumerus -33.2405 -15.837 -78.298
rradius 31.4455
rwrist 6.57584
rhand -14.3815 9.69021
rfingers 7.12502
rthumb 11.7613 -19.9596
lclavicle -9.93923e-015 1.55052e-014
lhumerus -28.376 -1.46068 91.4974
lradius 38.3048
lwrist -0.956448
lhand -18.3614 32.3443
lfingers 7.12502
lthumb 7.92155 62.1759
rfemur -17.275 10.6826 13.514
rtibia 24.1528
rfoot -6.94422 9.84698
rtoes -0.604127
lfemur -7.13055 -9.65426 -23.3773
ltibia 42.2893
lfoot -9.47852 -18.4405
ltoes 4.66604
284
root -8.81708 17.4408 3.7385 -0.0304985 26.7591 -0.882031
lowerback 7.23674 -1.02339 -1.51819
upperback -0.199346 -1.39249 2.22816
thorax -4.17548 -0.633197 3.31573
lowerneck -15.6468 -4.33131 -9.57198
upperneck 22.8329 -4.41463 3.74424
head 10.1868 -2.41582 2.32996
rclavicle -1.28713e-014 -1.59028e-015
rhumerus -34.3185 -15.709 -78.4313
rradius 31.3328
rwrist 7.28321
rhand -14.2721 8.90171
rfingers 7.12502
rthumb 11.8667 -20.742
lclavicle -1.28713e-014 -1.59028e-015
lhumerus -29.2254 -1.81371 91.4014
lradius 38.5471
lwrist -1.05813
lhand -17.2504 27.2097
lfingers 7.12502
lthumb 8.99375 56.998
rfemur -16.4655 10.812 14.0232
rtibia 24.0443
rfoot -6.65259 8.53635
rtoes 1.55531
lfemur -7.86159 -9.44896 -22.73
ltibia 43.8813
lfoot -8.12246 -18.5385
ltoes 4.23412
285
root -8.80641 17.4631 3.84801 -0.261573 28.0603 -1.32715
lowerback 7.33865 -1.02123 -0.975257
upperback -0.405479 -1.34291 2.17167
thorax -4.46427 -0.615092 2.95197
lowerneck -15.1869 -4.23313 -9.28284
upperneck 23.108 -4.41533 3.80871
head 10.1904 -2.38962 2.31413
rclavicle -1.03045e-013 6.75868e-015
rhumerus -34.8365 -15.4171 -78.6256
rradius 31.1525
rwrist 6.39265
rhand -13.2742 7.8696
rfingers 7.12502
rthumb 12.8288 -21.7162
lclavicle -1.03045e-013 6.75868e-015
lhumerus -29.937 -2.24436 91.291
lradius 38.6584
lwrist -1.17039
lhand -16.8871 25.8028
lfingers 7.12502
lthumb 9.34425 55.5757
rfemur -15.606 10.1476 14.8013
rtibia 23.846
rfoot -7.17698 7.74323
rtoes -0.791889
lfemur -8.72359 -9.32789 -22.0439
ltibia 45.5291
lfoot -6.90679 -18.4179
ltoes 1.84707
286
root -8.79826 17.4925 3.9642 -0.491759 29.4124 -1.8356
lowerback 7.18792 -1.05858 -0.489732
upperback -0.210044 -1.34553 2.32403
thorax -4.1833 -0.629699 2.82887
lowerneck -15.7144 -4.06801 -8.91481
upperneck 23.3454 -4.10958 3.35459
head 10.3356 -2.26521 2.12871
rclavicle -5.97099e-014 8.74653e-015
rhumerus -34.4097 -15.1655 -78.6772
rradius 30.7858
rwrist 6.43438
rhand -13.0764 7.88328
rfingers 7.12502
rthumb 13.0195 -21.6904
lclavicle -5.97099e-014 8.74653e-015
lhumerus -29.6862 -2.13143 91.4419
lradius 38.5017
lwrist -1.19048
lhand -16.8983 25.73
lfingers 7.12502
lthumb 9.33347 55.5033
rfemur -14.8514 9.34137 15.6093
rtibia 23.7196
rfoot -7.65844 7.03853
rtoes -2.51724
lfemur -9.59155 -9.22048 -21.2936
ltibia 47.1146
lfoot -5.93598 -18.1975
ltoes -3.78941
